<svg id="visual" viewBox="0 0 1200 900" width="1200" height="900" xmlns="http://www.w3.org/2000/svg" xmlns:xlink="http://www.w3.org/1999/xlink" version="1.1"><rect x="0" y="0" width="1200" height="900" fill="#000a13"></rect><path d="M516 0L531 0L531 129L533 129L533 257L523 257L523 386L409 386L409 514L544 514L544 643L420 643L420 771L498 771L498 900L0 900L0 771L0 771L0 643L0 643L0 514L0 514L0 386L0 386L0 257L0 257L0 129L0 129L0 0L0 0Z" fill="#2185d7"></path><path d="M399 0L303 0L303 129L273 129L273 257L302 257L302 386L254 386L254 514L279 514L279 643L408 643L408 771L279 771L279 900L0 900L0 771L0 771L0 643L0 643L0 514L0 514L0 386L0 386L0 257L0 257L0 129L0 129L0 0L0 0Z" fill="#0f4c7f"></path><path d="M170 0L136 0L136 129L164 129L164 257L121 257L121 386L168 386L168 514L97 514L97 643L214 643L214 771L128 771L128 900L0 900L0 771L0 771L0 643L0 643L0 514L0 514L0 386L0 386L0 257L0 257L0 129L0 129L0 0L0 0Z" fill="#011a32"></path></svg>